<?xml version="1.0" encoding="UTF-8"?>
<svg version="1.1" xmlns="http://www.w3.org/2000/svg" width="1200" height="900">
<path d="M0 0 C396 0 792 0 1200 0 C1200 297 1200 594 1200 900 C804 900 408 900 0 900 C0 603 0 306 0 0 Z " fill="#FEFEFE" transform="translate(0,0)"/>
<path d="M0 0 C14.52 0 29.04 0 44 0 C43.40280162 4.77758702 42.83682551 9.17227461 41.80859375 13.8125 C41.47504883 15.33037109 41.47504883 15.33037109 41.13476562 16.87890625 C40.90466797 17.90886719 40.67457031 18.93882812 40.4375 20 C40.20353516 21.06089844 39.96957031 22.12179687 39.72851562 23.21484375 C39.15557205 25.81062894 38.57932765 28.40563354 38 31 C37.07775635 31.0093457 36.1555127 31.01869141 35.20532227 31.02832031 C31.74381346 31.07265127 28.28348541 31.13440298 24.82250977 31.20751953 C23.33206297 31.23553484 21.84147297 31.25684494 20.35083008 31.27099609 C6.56254649 31.28622025 6.56254649 31.28622025 -5.0859375 37.97265625 C-9.68590571 45.43018047 -11.55521591 52.8601692 -12.85375977 61.4675293 C-14.01037699 68.49819497 -15.76716699 75.3236578 -17.58984375 82.20703125 C-17.93910516 83.54384913 -18.28777087 84.88082276 -18.63587952 86.21794128 C-19.73054699 90.41767623 -20.83368695 94.61516122 -21.9375 98.8125 C-23.21574614 103.67673795 -24.49027802 108.54191411 -25.75833321 113.4088192 C-26.25925385 115.32532009 -26.76550648 117.2404249 -27.2719574 119.1554718 C-29.2008576 126.54403068 -30.81829404 133.94115092 -32.27516174 141.43632507 C-33.3329384 146.63689515 -34.65923436 151.7499113 -36.03125 156.875 C-36.30843872 157.92800293 -36.58562744 158.98100586 -36.87121582 160.06591797 C-38.03568887 164.48904661 -39.21040875 168.90943548 -40.38427734 173.33007812 C-41.24938946 176.59410713 -42.10915526 179.85951438 -42.96875 183.125 C-43.35794617 184.5788208 -43.35794617 184.5788208 -43.75500488 186.06201172 C-45.14063131 191.32806098 -46.33250928 196.59036313 -47.35583496 201.93920898 C-48.87993269 209.71129217 -50.78829406 217.36578592 -52.79296875 225.02734375 C-53.14776682 226.39586673 -53.50219551 227.76448553 -53.85627747 229.13319397 C-54.77486324 232.68002315 -55.6983508 236.22555674 -56.62298584 239.77081299 C-57.57137526 243.41086878 -58.51495676 247.05217043 -59.45898438 250.69335938 C-61.30137608 257.79677723 -63.14896557 264.89882878 -65 272 C-86.02801679 272.07022363 -107.05601412 272.12305344 -128.08412457 272.15543652 C-137.84884764 272.17087525 -147.61349766 272.19190727 -157.37817383 272.22631836 C-165.89360904 272.25631265 -174.40899131 272.27559673 -182.92447788 272.28226548 C-187.42924324 272.28616081 -191.93385721 272.29525234 -196.43857384 272.31719017 C-200.68782663 272.33771416 -204.9368672 272.34380202 -209.18616486 272.33932304 C-210.7368339 272.34014119 -212.28751084 272.34601137 -213.83813667 272.35761642 C-236.55774084 272.5191589 -254.33729284 265.19087193 -270.6015625 249.48828125 C-285.15597508 233.98466784 -291.36837644 215.09646476 -291.3125 194.1875 C-291.32861328 192.99318359 -291.34472656 191.79886719 -291.36132812 190.56835938 C-291.367261 179.66966215 -289.26936579 169.87337737 -284.8125 159.9375 C-284.51206787 159.26195068 -284.21163574 158.58640137 -283.90209961 157.89038086 C-281.02293234 151.65724667 -277.36071834 146.30242989 -273 141 C-272.41992188 140.24589844 -271.83984375 139.49179687 -271.2421875 138.71484375 C-262.75035054 128.29304384 -250.1333323 119.73688324 -237.625 115 C-237.01011719 114.7525 -236.39523438 114.505 -235.76171875 114.25 C-222.13150799 109.06782086 -207.41031311 108.19313395 -193.01953125 107.02734375 C-190.99723787 106.85766927 -188.97499664 106.68737227 -186.95280457 106.51649475 C-182.72148739 106.16079207 -178.4897441 105.81091042 -174.25756836 105.46557617 C-168.9492575 105.03221804 -163.64202657 104.58703278 -158.33503532 104.13783646 C-135.81929968 102.235414 -113.31420505 100.53895767 -90.74584961 99.40893555 C-78.81745589 98.80673347 -66.90876861 97.90464754 -55 97 C-54.82585571 95.97966675 -54.82585571 95.97966675 -54.64819336 94.9387207 C-53.53725076 88.60837179 -52.18049558 82.40564258 -50.5625 76.1875 C-49.07619585 70.3728701 -47.65332573 64.56621784 -46.4375 58.6875 C-41.56787814 35.73839806 -34.46638431 18.37345955 -14.3125 5.25 C-9.29860541 2.53978671 -5.76511482 1.77391707 0 2 C0 1.34 0 0.68 0 0 Z " fill="#2C2D2C" transform="translate(417,273)"/>
<path d="M0 0 C7.45078075 -0.07010043 14.9015265 -0.12311149 22.35256386 -0.15543652 C25.81393872 -0.17096591 29.27508485 -0.19196487 32.73632812 -0.22631836 C36.73309278 -0.26573007 40.72962445 -0.27981405 44.7265625 -0.29296875 C46.55400497 -0.31619453 46.55400497 -0.31619453 48.41836548 -0.33988953 C63.70087863 -0.34282378 78.48027231 2.61351407 90 13.25 C97.79901589 21.61416196 99.45228923 31.88433655 99.3359375 42.97265625 C98.46550206 57.53626414 92.15970092 69.27996216 81.75 79.3125 C76.44504174 83.79491247 69.13633773 89 62 89 C62.19822861 89.54599854 62.39645721 90.09199707 62.60069275 90.65454102 C64.6708373 96.36164439 66.7292359 102.07288683 68.78100586 107.78662109 C69.54723371 109.91562487 70.31640368 112.04357226 71.08862305 114.17041016 C72.20104369 117.23584266 73.30266634 120.30497657 74.40234375 123.375 C74.74716293 124.31802979 75.09198212 125.26105957 75.44725037 126.23266602 C75.76750687 127.13299561 76.08776337 128.0333252 76.41772461 128.9609375 C76.69974228 129.74259277 76.98175995 130.52424805 77.27232361 131.32958984 C78.21962025 134.80595736 78.55308748 138.42469984 79 142 C68.44 142 57.88 142 47 142 C43.62358594 134.12170052 43.62358594 134.12170052 42.55786133 130.78051758 C42.3178389 130.03316849 42.07781647 129.2858194 41.83052063 128.51582336 C41.46001839 127.34203377 41.46001839 127.34203377 41.08203125 126.14453125 C40.81992355 125.32047287 40.55781586 124.49641449 40.2877655 123.64738464 C39.73892114 121.91760293 39.19193562 120.18723041 38.64672852 118.45629883 C37.81102884 115.80783766 36.96538858 113.16268503 36.11914062 110.51757812 C35.5853318 108.83092074 35.0521081 107.14407804 34.51953125 105.45703125 C34.26645706 104.66843216 34.01338287 103.87983307 33.75263977 103.06733704 C32.64530483 99.52347346 32 96.7465024 32 93 C25.07 93 18.14 93 11 93 C11 95.31 11 97.62 11 100 C10.66505432 102.30218506 10.66505432 102.30218506 10.18969727 104.32714844 C10.01273819 105.09774597 9.83577911 105.86834351 9.65345764 106.66229248 C9.45973068 107.46982971 9.26600372 108.27736694 9.06640625 109.109375 C8.86901352 109.9580011 8.67162079 110.8066272 8.46824646 111.68096924 C7.84019131 114.37239075 7.20134364 117.06112135 6.5625 119.75 C6.13669438 121.57145682 5.71155745 123.3930701 5.28710938 125.21484375 C2.20200151 138.39399548 2.20200151 138.39399548 1 142 C-9.23 142 -19.46 142 -30 142 C-27.75461856 128.52771137 -27.75461856 128.52771137 -26.59765625 123.51953125 C-26.22157227 121.8653418 -26.22157227 121.8653418 -25.83789062 120.17773438 C-25.32543382 117.95364601 -24.81242288 115.72968524 -24.29882812 113.50585938 C-22.93805782 107.51638188 -21.72897009 101.5387186 -20.71484375 95.48046875 C-18.38187978 81.7219144 -15.11017874 68.13907174 -12.05743408 54.52655029 C-11.04454015 50.00820637 -10.03589718 45.48893663 -9.03125 40.96875 C-8.75692139 39.73479492 -8.48259277 38.50083984 -8.19995117 37.22949219 C-6.47814797 29.40166956 -4.94613162 21.57865561 -3.72070312 13.65820312 C-2.80243138 8.99716526 -1.43205702 4.52555188 0 0 Z " fill="#2D2E2D" transform="translate(675,382)"/>
<path d="M0 0 C1.75508233 0.05019147 3.51030168 0.09581356 5.265625 0.13671875 C9.55547447 0.24663266 13.83873558 0.41896007 18.125 0.625 C19.29571168 7.91425651 20.46189225 15.20421508 21.62231445 22.49511719 C21.96159175 24.60756739 22.30795405 26.71889018 22.66088867 28.82910156 C23.46343694 33.75675535 24.14195525 38.67980465 24.67285156 43.64379883 C26.074539 56.71925872 27.81610548 69.70933026 29.82421875 82.703125 C29.94457048 83.48220781 30.06492222 84.26129063 30.18892097 85.06398201 C31.05661368 90.66872721 31.93383479 96.27196629 32.8125 101.875 C33.70230385 107.55295591 34.58869354 113.23141307 35.46781349 118.91103363 C35.81639716 121.1528233 36.17044628 123.39370295 36.52482605 125.63458252 C36.73775806 127.00537141 36.95044352 128.37619862 37.1628418 129.74707031 C37.349207 130.93439758 37.5355722 132.12172485 37.72758484 133.34503174 C38.125 136.625 38.125 136.625 38.125 142.625 C27.235 142.625 16.345 142.625 5.125 142.625 C4.63 138.768125 4.135 134.91125 3.625 130.9375 C3.46837891 129.73005127 3.31175781 128.52260254 3.15039062 127.27856445 C3.02857422 126.316521 2.90675781 125.35447754 2.78125 124.36328125 C2.65556641 123.38399658 2.52988281 122.40471191 2.40039062 121.39575195 C2.125 118.625 2.125 118.625 2.125 113.625 C-14.375 113.955 -30.875 114.285 -47.875 114.625 C-51.505 121.555 -55.135 128.485 -58.875 135.625 C-60.195 137.935 -61.515 140.245 -62.875 142.625 C-73.765 142.625 -84.655 142.625 -95.875 142.625 C-94.51335184 139.22087959 -93.22079653 136.26613407 -91.4765625 133.09765625 C-91.00347656 132.23462891 -90.53039062 131.37160156 -90.04296875 130.48242188 C-89.53378906 129.56009766 -89.02460938 128.63777344 -88.5 127.6875 C-87.4087797 125.69925962 -86.31763598 123.71097721 -85.2265625 121.72265625 C-84.6687207 120.7083252 -84.11087891 119.69399414 -83.53613281 118.64892578 C-80.97148474 113.98024103 -78.42370718 109.30239954 -75.875 104.625 C-74.87244104 102.78773575 -73.86983676 100.95049622 -72.8671875 99.11328125 C-70.88939134 95.48775055 -68.91573105 91.86001394 -66.9453125 88.23046875 C-61.55906609 78.31855873 -56.10083851 68.45283599 -50.5625 58.625 C-46.41555184 51.25844748 -42.41604551 43.88533391 -38.71484375 36.28515625 C-36.22016458 31.24191401 -33.50416718 26.3149189 -30.8125 21.375 C-30.31733887 20.46339111 -29.82217773 19.55178223 -29.31201172 18.61254883 C-28.33345519 16.8240461 -27.3322838 15.04772599 -26.30859375 13.28466797 C-24.80494167 10.64974964 -24.80494167 10.64974964 -23.83203125 7.75048828 C-19.46735766 -2.73252239 -9.71673469 -0.48093663 0 0 Z " fill="#2D2D2D" transform="translate(595.875,381.375)"/>
<path d="M0 0 C29.37 0 58.74 0 89 0 C86 21 86 21 84 28 C65.19 28 46.38 28 27 28 C25.68 34.27 24.36 40.54 23 47 C22.34 49.97 21.68 52.94 21 56 C37.17 56 53.34 56 70 56 C67.72307692 70.8 67.72307692 70.8 66.4375 76.75 C66.18871094 77.92046875 65.93992187 79.0909375 65.68359375 80.296875 C65 83 65 83 64 84 C62.43551617 84.12263388 60.86567228 84.17779522 59.29663086 84.20532227 C58.29566879 84.22526749 57.29470673 84.24521271 56.26341248 84.26576233 C55.1748848 84.28247482 54.08635712 84.29918732 52.96484375 84.31640625 C51.85645645 84.33718735 50.74806915 84.35796844 49.60609436 84.37937927 C46.04996192 84.44499623 42.49375297 84.50381596 38.9375 84.5625 C36.53319507 84.60567368 34.12889801 84.64928758 31.72460938 84.69335938 C25.81648815 84.80068992 19.90829009 84.90243331 14 85 C13.823479 85.77714355 13.64695801 86.55428711 13.46508789 87.35498047 C12.66688032 90.8622641 11.86474119 94.36863691 11.0625 97.875 C10.78470703 99.09832031 10.50691406 100.32164062 10.22070312 101.58203125 C9.95322266 102.74863281 9.68574219 103.91523438 9.41015625 105.1171875 C9.16402588 106.19597168 8.91789551 107.27475586 8.66430664 108.38623047 C8 111 8 111 7 113 C26.47 113 45.94 113 66 113 C64.87396389 123.13432497 64.87396389 123.13432497 64.0625 126.74609375 C63.88976562 127.52017578 63.71703125 128.29425781 63.5390625 129.09179688 C63.27222656 130.25291992 63.27222656 130.25291992 63 131.4375 C62.73316406 132.63922852 62.73316406 132.63922852 62.4609375 133.86523438 C61.13827285 139.7234543 61.13827285 139.7234543 60 142 C29.97 142 -0.06 142 -31 142 C-29.20870377 130.65512385 -27.43871979 119.71306516 -24.75 108.6171875 C-24.29227444 106.68381744 -23.8345544 104.75044606 -23.37713623 102.81700325 C-22.74868448 100.16783018 -22.11399002 97.52017179 -21.47900391 94.87255859 C-16.44720786 74.60901684 -16.44720786 74.60901684 -12.41796875 54.13671875 C-10.63293363 43.27377773 -7.9151675 32.62841009 -5.3125 21.9375 C-3.559375 14.698125 -1.80625 7.45875 0 0 Z " fill="#FE8B19" transform="translate(916,382)"/>
<path d="M0 0 C1.36916565 0.00539291 1.36916565 0.00539291 2.76599121 0.01089478 C3.72198715 0.01074875 4.67798309 0.01060272 5.66294861 0.01045227 C8.83916452 0.01115181 12.01532259 0.01894614 15.19152832 0.02676392 C17.387283 0.02862795 19.58303809 0.03005192 21.77879333 0.03105164 C27.5705784 0.03487798 33.36233857 0.04470926 39.15411377 0.05575562 C45.05915998 0.06596724 50.9642102 0.07054872 56.8692627 0.07559204 C68.46497679 0.08633142 80.06067236 0.10340923 91.65637207 0.12442017 C88.41499463 26.27779563 88.41499463 26.27779563 79.65637207 34.12442017 C78.14072872 35.7768738 76.64149608 37.44448432 75.15637207 39.12442017 C74.39195801 39.97133423 73.62754395 40.81824829 72.83996582 41.69082642 C70.94788522 43.79953163 69.07731449 45.92361818 67.21887207 48.06192017 C63.56458345 52.25884097 59.80892234 56.36094777 56.05871582 60.47207642 C54.08695363 62.64903012 52.1427187 64.84280691 50.21887207 67.06192017 C47.36451194 70.34976957 44.42476144 73.55316405 41.46887207 76.74942017 C37.48633702 81.06052463 33.63852481 85.45922994 29.84387207 89.93692017 C23.32034324 97.51475669 16.47887341 104.81459731 9.65637207 112.12442017 C39.85137207 112.61942017 39.85137207 112.61942017 70.65637207 113.12442017 C68.24376145 127.60008388 68.24376145 127.60008388 67.09387207 133.81192017 C66.96818848 134.51252563 66.84250488 135.2131311 66.7130127 135.93496704 C65.77328985 141.00750238 65.77328985 141.00750238 64.65637207 142.12442017 C61.52077321 142.21976974 58.40723594 142.24992895 55.2713623 142.23794556 C53.79347733 142.2381646 53.79347733 142.2381646 52.28573608 142.23838806 C49.012124 142.23768849 45.73856803 142.22989402 42.46496582 142.22207642 C40.20195039 142.22021239 37.93893456 142.21878842 35.67591858 142.2177887 C29.70658259 142.21396226 23.73727075 142.20413092 17.76794434 142.19308472 C11.68192878 142.18287328 5.59590934 142.17829165 -0.4901123 142.17324829 C-12.44129482 142.16250876 -24.39245937 142.14543084 -36.34362793 142.12442017 C-35.869868 138.28375819 -35.3311936 134.45483701 -34.78112793 130.62442017 C-34.64899902 129.54676392 -34.51687012 128.46910767 -34.3807373 127.35879517 C-33.22660062 119.63314554 -31.0005179 115.4409386 -25.34362793 110.12442017 C-24.16972918 108.87073639 -23.00211383 107.61111011 -21.84362793 106.34317017 C-20.67787615 105.1027264 -19.51119734 103.86315324 -18.34362793 102.62442017 C-14.14602718 98.14943765 -9.98473856 93.66107508 -5.98034668 89.01113892 C-3.96489021 86.68783229 -1.9051433 84.40693551 0.15637207 82.12442017 C2.84620638 79.14379296 5.51947571 76.15196784 8.15637207 73.12442017 C11.548903 69.22929206 15.00831408 65.39659254 18.46887207 61.56192017 C20.38191356 59.43024536 22.27524819 57.28422906 24.15637207 55.12442017 C29.08204295 49.47238308 34.11686081 43.91748637 39.16027832 38.37051392 C39.96336426 37.48492798 40.7664502 36.59934204 41.59387207 35.68692017 C42.69021973 34.48229126 42.69021973 34.48229126 43.80871582 33.25332642 C45.78964788 31.06149051 45.78964788 31.06149051 47.65637207 28.12442017 C27.85637207 28.12442017 8.05637207 28.12442017 -12.34362793 28.12442017 C-11.21713847 17.98601503 -11.21713847 17.98601503 -10.40612793 14.34317017 C-10.23339355 13.56457642 -10.06065918 12.78598267 -9.88269043 11.98379517 C-9.7047998 11.20520142 -9.52690918 10.42660767 -9.34362793 9.62442017 C-9.07679199 8.41012329 -9.07679199 8.41012329 -8.80456543 7.17129517 C-7.24417104 0.23103355 -7.1315068 0.01186911 0 0 Z " fill="#FE8C1A" transform="translate(803.3436279296875,381.8755798339844)"/>
<path d="M0 0 C31.35 0 62.7 0 95 0 C92.72307692 14.8 92.72307692 14.8 91.4375 20.75 C91.18871094 21.92046875 90.93992187 23.0909375 90.68359375 24.296875 C90 27 90 27 89 28 C87.03630847 28.0940067 85.06920801 28.11743381 83.10327148 28.11352539 C81.84203964 28.11344986 80.5808078 28.11337433 79.28135681 28.11329651 C77.89460206 28.1081891 76.50784771 28.10297309 75.12109375 28.09765625 C73.71004791 28.09579201 72.29900143 28.09436814 70.88795471 28.09336853 C67.16759465 28.08954379 63.4472734 28.0797139 59.72692871 28.06866455 C55.93319219 28.05844948 52.13944942 28.05387071 48.34570312 28.04882812 C40.89711769 28.03809158 33.44856428 28.0210157 26 28 C25.67 30.97 25.34 33.94 25 37 C23.35 43.93 21.7 50.86 20 58 C38.15 58 56.3 58 75 58 C70 84 70 84 69 86 C50.85 86 32.7 86 14 86 C13.67 88.97 13.34 91.94 13 95 C12.66479359 96.78653442 12.29599022 98.56748952 11.87670898 100.33618164 C11.65655624 101.2764772 11.4364035 102.21677277 11.20957947 103.18556213 C10.97412918 104.16717819 10.73867889 105.14879425 10.49609375 106.16015625 C10.13198143 107.70587563 10.13198143 107.70587563 9.76051331 109.28282166 C8.9911327 112.54391023 8.21444034 115.80320517 7.4375 119.0625 C6.91162356 121.28569243 6.38622807 123.50899869 5.86132812 125.73242188 C4.58066784 131.15651384 3.29011543 136.57811457 2 142 C-8.89 142 -19.78 142 -31 142 C-28.62696462 130.40863488 -26.08093457 118.8973015 -23.19482422 107.42211914 C-21.8182623 101.83806578 -20.68794985 96.27696222 -19.75390625 90.6015625 C-17.40210357 76.58785362 -13.81366397 62.80605945 -10.52099609 48.9901123 C-5.49808696 28.12965193 -5.49808696 28.12965193 -1.5078125 7.0546875 C-1 4 -1 4 0 0 Z " fill="#2D2E2E" transform="translate(440,382)"/>
<path d="M0 0 C10.89 0 21.78 0 33 0 C29.58855755 19.30521482 25.50623463 38.3013372 20.93640137 57.35614014 C19.44756866 63.56738118 17.96981665 69.78125261 16.49609375 75.99609375 C16.33973827 76.65391216 16.1833828 77.31173058 16.02228928 77.98948288 C13.86849382 87.06538344 11.86019291 96.15392799 10.13121033 105.32066345 C9.09014152 110.81971697 9.09014152 110.81971697 8 113 C23.18 113 38.36 113 54 113 C54 122.57 54 132.14 54 142 C25.95 142 -2.1 142 -31 142 C-26.55555556 119.77777778 -26.55555556 119.77777778 -23.9296875 109.28515625 C-23.14489122 105.92936076 -22.63450227 102.57475396 -22.15258789 99.1628418 C-21.12316216 92.39406643 -19.68063998 85.76732779 -18.10229683 79.10738373 C-17.61352334 77.04444934 -17.13114105 74.98010189 -16.65013123 72.91534424 C-15.62634687 68.52561612 -14.59494232 64.13769863 -13.5625 59.75 C-12.20398409 53.97527024 -10.84958716 48.19961028 -9.50390625 42.421875 C-9.3423769 41.72949234 -9.18084755 41.03710968 -9.01442337 40.32374573 C-6.94703556 31.43815594 -5.04047504 22.56817488 -3.68334961 13.54394531 C-2.79752698 8.94994701 -1.34439209 4.48130696 0 0 Z " fill="#FE8C1A" transform="translate(1024,382)"/>
<path d="M0 0 C0.84142294 0.00291284 1.68284588 0.00582568 2.54976648 0.00882679 C3.43675177 0.00797237 4.32373706 0.00711794 5.23760068 0.00623763 C8.23335384 0.0045801 11.22905198 0.01010863 14.22480005 0.01555592 C16.36285139 0.01583776 18.50090282 0.01568012 20.6389541 0.01511341 C26.46309771 0.01482531 32.28722093 0.02072409 38.11135978 0.02768737 C44.1905896 0.0339188 50.26981984 0.03452454 56.34905237 0.03571278 C67.86983776 0.03882672 79.39061372 0.04704095 90.91139495 0.05706227 C104.02362207 0.06822146 117.13584963 0.07373336 130.24808031 0.0787577 C157.22917638 0.08922352 184.21026405 0.10682417 211.19135278 0.12908131 C211.03547839 1.57573433 210.87823351 3.02223973 210.72040552 4.46868092 C210.63298593 5.2742191 210.54556635 6.07975727 210.45549768 6.9097057 C210.1816028 9.21100176 209.78782702 11.43653309 209.25385278 13.69158131 C208.99475122 14.79179615 208.99475122 14.79179615 208.73041528 15.91423756 C208.55252466 16.645136 208.37463403 17.37603443 208.19135278 18.12908131 C208.01346216 18.89091725 207.83557153 19.65275318 207.65229028 20.43767506 C206.32469588 25.99573822 206.32469588 25.99573822 205.19135278 27.12908131 C202.39711688 27.22698079 199.62760065 27.2590104 196.83293909 27.24933583 C195.50246116 27.25061746 195.50246116 27.25061746 194.14510489 27.25192499 C191.14935173 27.25358252 188.15365359 27.24805398 185.15790552 27.2426067 C183.01985418 27.24232486 180.88180275 27.2424825 178.74375147 27.2430492 C172.91960786 27.24333731 167.09548464 27.23743853 161.27134579 27.23047525 C155.19211597 27.22424382 149.11288573 27.22363808 143.0336532 27.22244984 C131.5128678 27.2193359 119.99209185 27.21112167 108.47131062 27.20110035 C95.3590835 27.18994116 82.24685594 27.18442925 69.13462526 27.17940491 C42.15352919 27.1689391 15.17244152 27.15133845 -11.80864722 27.12908131 C-10.7300622 18.33234406 -10.7300622 18.33234406 -9.87114722 14.44548756 C-9.69841284 13.66367115 -9.52567847 12.88185475 -9.34770972 12.07634693 C-9.16981909 11.28937428 -8.99192847 10.50240162 -8.80864722 9.69158131 C-8.63075659 8.87753834 -8.45286597 8.06349537 -8.26958472 7.22478443 C-6.65861379 0.01749285 -6.65861379 0.01749285 0 0 Z " fill="#FD8E1C" transform="translate(136.80864721536636,556.8709186911583)"/>
<path d="M0 0 C-4.16322464 14.83279533 -9.0662437 29.40840364 -14 44 C-23.15328035 45.74572295 -32.29651694 46.68265414 -41.57202148 47.43261719 C-43.93089007 47.62446242 -46.28863083 47.82734873 -48.64648438 48.03125 C-57.45914939 48.7714377 -66.15034882 49.19368088 -75 49 C-74.36191406 47.15341797 -74.36191406 47.15341797 -73.7109375 45.26953125 C-71.43112115 38.43409126 -69.62557004 31.46511511 -67.78125 24.50195312 C-65.74945944 17.05663052 -63.12814024 10.05372705 -60 3 C-59.44813522 2.96463638 -58.89627045 2.92927277 -58.3276825 2.89283752 C-52.53531734 2.52137229 -46.74308705 2.14785413 -40.95092773 1.77319336 C-38.79503655 1.63400475 -36.63911256 1.49532333 -34.4831543 1.35717773 C-31.36758607 1.15745258 -28.25214406 0.95584713 -25.13671875 0.75390625 C-24.18729904 0.6934462 -23.23787933 0.63298615 -22.25968933 0.57069397 C-16.59195458 0.20119058 -10.95376032 -0.28312774 -5.30769348 -0.90541077 C-3 -1 -3 -1 0 0 Z " fill="#FBFBFB" transform="translate(289,390)"/>
<path d="M0 0 C-1.41103251 7.16091657 -2.89618144 14.30353327 -4.4375 21.4375 C-4.74397461 22.87706055 -4.74397461 22.87706055 -5.05664062 24.34570312 C-9.11352287 43.11352287 -9.11352287 43.11352287 -11 45 C-12.50343293 45.21039566 -14.01564657 45.35857533 -15.52880859 45.48071289 C-16.49426605 45.56072037 -17.45972351 45.64072784 -18.45443726 45.72315979 C-19.50845734 45.80549362 -20.56247742 45.88782745 -21.6484375 45.97265625 C-22.73073639 46.06002548 -23.81303528 46.14739471 -24.9281311 46.2374115 C-27.22974062 46.42199238 -29.53153677 46.60425796 -31.83349609 46.78442383 C-35.32576181 47.05863386 -38.81717162 47.34222683 -42.30859375 47.62695312 C-44.54682953 47.80525918 -46.78510959 47.98301043 -49.0234375 48.16015625 C-50.05721527 48.24451431 -51.09099304 48.32887238 -52.15609741 48.41578674 C-58.7846684 48.92677131 -65.35259371 49.09886651 -72 49 C-70.76475036 43.06012035 -69.26785377 37.2816741 -67.43359375 31.5 C-67.19463882 30.73824463 -66.9556839 29.97648926 -66.70948792 29.19165039 C-66.20960542 27.60131115 -65.707875 26.01155164 -65.2043457 24.42236328 C-64.43110874 21.97981085 -63.66538368 19.53498912 -62.90039062 17.08984375 C-62.41189916 15.53892358 -61.92298257 13.98813724 -61.43359375 12.4375 C-61.20441757 11.7053125 -60.97524139 10.973125 -60.73912048 10.21875 C-59.11522705 5.11522705 -59.11522705 5.11522705 -58 4 C-56.44463629 3.78936528 -54.88072786 3.64132503 -53.31591797 3.51928711 C-52.31752899 3.43927963 -51.31914001 3.35927216 -50.29049683 3.27684021 C-48.65783371 3.15333946 -48.65783371 3.15333946 -46.9921875 3.02734375 C-45.32121506 2.8962899 -45.32121506 2.8962899 -43.6164856 2.7625885 C-41.25100338 2.57806852 -38.88534469 2.39579964 -36.51953125 2.21557617 C-32.91100704 1.94024732 -29.30314828 1.65723925 -25.6953125 1.37304688 C-23.39847316 1.19485229 -21.10159916 1.01710373 -18.8046875 0.83984375 C-17.72839081 0.75548569 -16.65209412 0.67112762 -15.54318237 0.58421326 C-10.34497273 0.19149795 -5.21303893 -0.09906341 0 0 Z " fill="#FCFCFC" transform="translate(358,384)"/>
<path d="M0 0 C1.42795898 0.00676758 1.42795898 0.00676758 2.88476562 0.01367188 C5.19408098 0.02527647 7.50325337 0.04159748 9.8125 0.0625 C6.64541792 13.77410244 3.22647718 27.40659127 -0.1875 41.0625 C-21.6375 41.0625 -43.0875 41.0625 -65.1875 41.0625 C-64.48330381 35.42893049 -63.66765478 30.7634279 -61.90234375 25.5 C-61.5715255 24.48486328 -61.5715255 24.48486328 -61.23402405 23.44921875 C-60.537792 21.31801887 -59.83160463 19.19028039 -59.125 17.0625 C-58.64712003 15.60568719 -58.1699005 14.14865756 -57.69335938 12.69140625 C-56.53235305 9.14590226 -55.36240336 5.60342661 -54.1875 2.0625 C-52.81984497 2.02491577 -52.81984497 2.02491577 -51.42456055 1.98657227 C-47.9895761 1.89052077 -44.55470918 1.79135394 -41.11987305 1.69018555 C-39.64301988 1.64730139 -38.16613175 1.60560173 -36.68920898 1.56518555 C-29.01478316 1.35439257 -21.39731363 1.04160989 -13.75463867 0.26977539 C-9.17259543 -0.10018702 -4.5937029 -0.04232327 0 0 Z " fill="#FDFDFD" transform="translate(322.1875,490.9375)"/>
<path d="M0 0 C-0.60259238 2.43789913 -1.2067004 4.87539712 -1.8125 7.3125 C-2.08489502 8.40921021 -2.08489502 8.40921021 -2.36279297 9.52807617 C-3.39060261 13.64157466 -4.46869568 17.73282118 -5.625 21.8125 C-6.9078253 26.39600011 -7.7548635 30.98424844 -8.47265625 35.6875 C-9 38 -9 38 -11 41 C-13.31938171 41.47465515 -13.31938171 41.47465515 -16.2565918 41.6159668 C-17.355009 41.67580246 -18.45342621 41.73563812 -19.58512878 41.79728699 C-20.77777847 41.84742447 -21.97042816 41.89756195 -23.19921875 41.94921875 C-25.03453911 42.04273369 -25.03453911 42.04273369 -26.90693665 42.13813782 C-30.83326296 42.33473624 -34.76021897 42.51111433 -38.6875 42.6875 C-41.31712064 42.8170802 -43.94667934 42.94792389 -46.57617188 43.08007812 C-67.06547424 44.08854189 -67.06547424 44.08854189 -74 44 C-71.93280281 35.0963302 -69.29983043 26.46905458 -66.375 17.8125 C-65.96765625 16.58724609 -65.5603125 15.36199219 -65.140625 14.09960938 C-62.13375235 5.13375235 -62.13375235 5.13375235 -61 4 C-59.21928754 3.91273777 -57.4351686 3.89300959 -55.65234375 3.90234375 C-54.57275391 3.90556641 -53.49316406 3.90878906 -52.38085938 3.91210938 C-50.67639648 3.92467773 -50.67639648 3.92467773 -48.9375 3.9375 C-47.22723633 3.94426758 -47.22723633 3.94426758 -45.48242188 3.95117188 C-42.65489649 3.96300253 -39.8274736 3.9794859 -37 4 C-37 3.34 -37 2.68 -37 2 C-36.3201001 1.97494385 -35.6402002 1.9498877 -34.93969727 1.92407227 C-31.81382721 1.80694178 -28.68817372 1.68475344 -25.5625 1.5625 C-24.49322266 1.52318359 -23.42394531 1.48386719 -22.32226562 1.44335938 C-14.87843777 1.14742738 -7.42705339 0 0 0 Z " fill="#FBFBFB" transform="translate(345,439)"/>
<path d="M0 0 C-2.08476394 8.66132785 -4.48685397 17.1787543 -7.125 25.6875 C-7.48464844 26.86505859 -7.84429687 28.04261719 -8.21484375 29.25585938 C-8.55902344 30.37154297 -8.90320313 31.48722656 -9.2578125 32.63671875 C-9.5686377 33.64436279 -9.87946289 34.65200684 -10.19970703 35.69018555 C-11 38 -11 38 -12 39 C-14.63529461 39.23301028 -17.2496124 39.40470457 -19.890625 39.53515625 C-20.69920456 39.57822403 -21.50778412 39.62129181 -22.34086609 39.66566467 C-24.97698652 39.80364508 -27.61341964 39.93362766 -30.25 40.0625 C-31.1370462 40.10735535 -32.02409241 40.15221069 -32.9380188 40.19842529 C-45.965562 40.85371852 -58.95425154 41.28463451 -72 41 C-70.03299569 32.61627819 -67.63541499 24.46735235 -64.875 16.3125 C-64.51535156 15.23033203 -64.15570313 14.14816406 -63.78515625 13.03320312 C-61.13382509 5.13382509 -61.13382509 5.13382509 -60 4 C-58.52726679 3.78979645 -57.0456181 3.64150604 -55.56298828 3.51928711 C-54.61755157 3.43927963 -53.67211487 3.35927216 -52.69802856 3.27684021 C-51.66588226 3.19450638 -50.63373596 3.11217255 -49.5703125 3.02734375 C-48.51020966 2.93997452 -47.45010681 2.85260529 -46.35787964 2.7625885 C-44.10335225 2.57800834 -41.84863439 2.39574272 -39.59375 2.21557617 C-36.1738957 1.94141978 -32.75492397 1.65779748 -29.3359375 1.37304688 C-27.14327603 1.19473533 -24.95056891 1.01698395 -22.7578125 0.83984375 C-21.23995651 0.71330666 -21.23995651 0.71330666 -19.69143677 0.58421326 C-13.11367932 0.06675451 -6.59714731 -0.09774038 0 0 Z " fill="#FAFAFA" transform="translate(272,445)"/>
<path d="M0 0 C-1.57284477 7.91551227 -3.98367497 15.46347364 -6.5 23.125 C-7.30309694 25.58560691 -8.10521118 28.04653481 -8.90625 30.5078125 C-9.26009766 31.58691895 -9.61394531 32.66602539 -9.97851562 33.77783203 C-10.7129002 36.09437305 -11.38105693 38.43229309 -12.00585938 40.78076172 C-13 44 -13 44 -15 46 C-17.2487793 46.28710938 -17.2487793 46.28710938 -20.07421875 46.34375 C-21.12343506 46.37218994 -22.17265137 46.40062988 -23.25366211 46.42993164 C-24.95341187 46.46461548 -24.95341187 46.46461548 -26.6875 46.5 C-36.56194956 46.77891602 -46.34439354 47.343249 -56.17260742 48.33984375 C-62.46750074 48.95551545 -68.67634018 49.1024228 -75 49 C-66.68810289 31.40468535 -66.68810289 31.40468535 -60 24 C-59.443125 23.34 -58.88625 22.68 -58.3125 22 C-43.62976007 5.79835594 -21.21129938 -0.67695636 0 0 Z " fill="#FCFCFC" transform="translate(217,395)"/>
<path d="M0 0 C-2.15287705 9.33359119 -4.70857437 18.46899179 -7.65234375 27.5859375 C-8.13664856 29.09643677 -8.13664856 29.09643677 -8.6307373 30.63745117 C-9.41820795 33.09237817 -10.20799891 35.54653164 -11 38 C-18.75959578 38.02533375 -26.51918092 38.04286004 -34.27880859 38.05493164 C-36.91911213 38.05996357 -39.55941287 38.06678971 -42.19970703 38.07543945 C-45.99252002 38.08755479 -49.7852962 38.0932397 -53.578125 38.09765625 C-54.76053772 38.10281754 -55.94295044 38.10797882 -57.16119385 38.11329651 C-58.8124527 38.11340981 -58.8124527 38.11340981 -60.49707031 38.11352539 C-61.94935028 38.11685631 -61.94935028 38.11685631 -63.43096924 38.12025452 C-65.77592875 38.01048862 -67.75769409 37.66739034 -70 37 C-68.78226465 29.20992133 -66.89412222 21.86136626 -64.4375 14.375 C-64.12103516 13.38371094 -63.80457031 12.39242188 -63.47851562 11.37109375 C-61.1437595 4.1437595 -61.1437595 4.1437595 -60 3 C-54.22372124 2.12116857 -48.4687979 1.73893727 -42.63671875 1.46484375 C-41.32777397 1.40037804 -41.32777397 1.40037804 -39.99238586 1.33460999 C-38.15620991 1.24494665 -36.31995986 1.15678917 -34.48364258 1.07006836 C-31.70566569 0.93836126 -28.92803737 0.80058588 -26.15039062 0.66210938 C-17.4310001 0.23672313 -8.73291535 -0.17143283 0 0 Z " fill="#FBFBFB" transform="translate(257,494)"/>
<path d="M0 0 C-0.59141148 4.85592172 -1.57569167 9.32451741 -3.03125 13.9921875 C-3.32521667 14.93930099 -3.32521667 14.93930099 -3.62512207 15.9055481 C-4.03609772 17.22559156 -4.44966006 18.5448323 -4.86572266 19.86328125 C-5.5042979 21.88863153 -6.13358307 23.91670309 -6.76171875 25.9453125 C-9.85710206 35.85710206 -9.85710206 35.85710206 -11 37 C-15.99898459 37.8618939 -21.00249798 38.28418274 -26.0625 38.5625 C-27.19824463 38.62618774 -27.19824463 38.62618774 -28.35693359 38.69116211 C-38.2317204 39.18619631 -48.11618498 39.09046015 -58 39 C-61.05580541 31.78221527 -61.40051508 25.27034085 -61.25 17.5 C-61.24484375 16.40429688 -61.2396875 15.30859375 -61.234375 14.1796875 C-61.15472274 6.15472274 -61.15472274 6.15472274 -60 5 C-58.44447833 4.7945533 -56.8806037 4.65183778 -55.31591797 4.53515625 C-54.31752899 4.45837646 -53.31914001 4.38159668 -52.29049683 4.30249023 C-50.65783371 4.18369507 -50.65783371 4.18369507 -48.9921875 4.0625 C-47.87820587 3.97750244 -46.76422424 3.89250488 -45.6164856 3.80493164 C-42.03630143 3.53230829 -38.45569895 3.26576999 -34.875 3 C-31.31578972 2.73346817 -27.75669272 2.4656034 -24.19778442 2.19506836 C-21.97977324 2.02670019 -19.76157721 1.86074517 -17.54318237 1.69750977 C-11.7569702 1.26080154 -5.77508514 0 0 0 Z " fill="#FBFBFB" transform="translate(200,450)"/>
<path d="M0 0 C4.18087152 -0.07441989 8.3613873 -0.12872818 12.54272461 -0.16479492 C13.96369141 -0.1798376 15.38461213 -0.20027704 16.80541992 -0.22631836 C18.85346886 -0.26290347 20.9009015 -0.27977097 22.94921875 -0.29296875 C24.79519653 -0.31653442 24.79519653 -0.31653442 26.6784668 -0.34057617 C31.51625304 0.15547027 34.70569848 2.21119587 37.75 5.9375 C41.24267735 10.69142195 41.38584594 14.11584939 41 20 C39.87216177 26.37228602 37.42137872 30.2183854 32.62109375 34.4921875 C23.97955082 39.46332844 15.11385938 39.38307957 5.375 39.1875 C4.08464844 39.17396484 2.79429687 39.16042969 1.46484375 39.14648438 C-1.69055028 39.11142444 -4.84504578 39.06228144 -8 39 C-6.63702593 30.164028 -4.8531584 21.4671478 -2.875 12.75 C-2.45927734 10.89955078 -2.45927734 10.89955078 -2.03515625 9.01171875 C-1.35970772 6.00713737 -0.68127817 3.00326387 0 0 Z " fill="#FDFDFD" transform="translate(701,410)"/>
<path d="M0 0 C5.97197337 2.30159245 9.38309297 5.87720377 12.55078125 11.38671875 C14.46026401 17.11516704 14.4626384 23.1623438 11.92578125 28.69921875 C9.02352693 33.73997625 5.61857915 36.59719592 0.11328125 38.69921875 C-7.34104399 40.13777274 -13.04993594 39.56773837 -19.44921875 35.38671875 C-24.22302999 30.52321168 -26.1998667 26.37894335 -26.76171875 19.63671875 C-26.64309587 13.8241975 -24.51469664 9.5011803 -20.47265625 5.36328125 C-13.9092816 -0.48408889 -8.81655468 -2.20765404 0 0 Z " fill="#383530" transform="translate(183.44921875,588.61328125)"/>
<path d="M0 0 C4.40268535 3.06853827 6.92827268 6.72231805 8.625 11.8125 C9.36712833 18.66197952 8.70917387 24.15264177 4.625 29.8125 C0.28768629 34.60060193 -4.42754246 36.59813945 -10.8125 37.0625 C-17.08073703 36.62262372 -21.92289838 35.38176219 -26.375 30.8125 C-30.05823771 25.75946314 -32.13054831 21.26207577 -31.734375 14.9453125 C-30.80930476 9.45522174 -28.39482763 4.62618262 -24.375 0.8125 C-16.26438638 -3.87528586 -8.27874397 -4.72195026 0 0 Z " fill="#383530" transform="translate(303.375,591.1875)"/>
<path d="M0 0 C0.66 0 1.32 0 2 0 C2.16604736 1.37381836 2.16604736 1.37381836 2.33544922 2.77539062 C2.75641741 6.25702972 3.17767829 9.73863317 3.59912109 13.22021484 C3.77957226 14.71141216 3.95991521 16.20262257 4.14013672 17.69384766 C5.40179102 28.13245113 6.69001704 38.56734292 8 49 C-2.56 49 -13.12 49 -24 49 C-22.53580752 44.60742257 -21.14239029 41.09690797 -19.0234375 37.0703125 C-18.43836426 35.95180908 -17.85329102 34.83330566 -17.25048828 33.6809082 C-16.94371155 33.0992691 -16.63693481 32.51763 -16.32086182 31.91836548 C-14.7312973 28.90453187 -13.15564459 25.88343151 -11.578125 22.86328125 C-11.26807526 22.27067001 -10.95802551 21.67805878 -10.63858032 21.06748962 C-6.99426644 14.09371207 -3.47983165 7.05692568 0 0 Z " fill="#F9F9F8" transform="translate(587,420)"/>
<path d="M0 0 C-0.59758171 6.68722395 -2.80145926 12.64641773 -5.0625 18.9375 C-5.43955078 20.00291016 -5.81660156 21.06832031 -6.20507812 22.16601562 C-7.13092017 24.77946849 -8.06269463 27.39064121 -9 30 C-21.77897653 26.25798637 -32.45381701 15.38466606 -39 4 C-39 3.34 -39 2.68 -39 2 C-33.76728975 1.7144828 -28.53454198 1.42966713 -23.30175781 1.14550781 C-21.52082277 1.04869668 -19.73989823 0.95169225 -17.95898438 0.85449219 C-15.40237098 0.71498878 -12.84572091 0.5761756 -10.2890625 0.4375 C-9.09055161 0.37187866 -9.09055161 0.37187866 -7.86782837 0.30493164 C-2.22774341 0 -2.22774341 0 0 0 Z " fill="#F8F8F8" transform="translate(186,497)"/>
<path d="M0 0 C0.83364104 0.00291284 1.66728208 0.00582568 2.52618498 0.00882679 C3.40500316 0.00797237 4.28382134 0.00711794 5.18927038 0.00623763 C8.15738465 0.00458012 11.12544339 0.01010859 14.09355253 0.01555592 C16.21189968 0.01583776 18.33024694 0.01568012 20.44859403 0.01511341 C26.21902043 0.01482531 31.98942623 0.02072406 37.75984782 0.02768737 C43.7830232 0.03391883 49.80619901 0.03452454 55.82937711 0.03571278 C67.24391465 0.03882671 78.65844266 0.04704093 90.07297599 0.05706227 C103.06428642 0.06822149 116.05559728 0.07373337 129.0469113 0.0787577 C155.77917916 0.08922349 182.51143856 0.10682413 209.24369901 0.12908131 C209.24369901 0.78908131 209.24369901 1.44908131 209.24369901 2.12908131 C138.62369901 2.45908131 68.00369901 2.78908131 -4.75630099 3.12908131 C-5.08630099 4.77908131 -5.41630099 6.42908131 -5.75630099 8.12908131 C-6.08630099 8.12908131 -6.41630099 8.12908131 -6.75630099 8.12908131 C-6.79871822 5.79613355 -6.79723036 3.46205564 -6.75630099 1.12908131 C-4.93759281 -0.68962687 -2.42074101 0.00641853 0 0 Z " fill="#FC8107" transform="translate(136.75630098581314,556.8709186911583)"/>
<path d="M0 0 C32.34 0 64.68 0 98 0 C97.28257809 5.73937532 96.46550351 10.52878691 95 16 C94.67 16 94.34 16 94 16 C94.14133499 14.22880197 94.28823208 12.45804713 94.4375 10.6875 C94.55931641 9.20830078 94.55931641 9.20830078 94.68359375 7.69921875 C95 5 95 5 96 2 C64.32 2.33 32.64 2.66 0 3 C0 2.01 0 1.02 0 0 Z " fill="#FE7B12" transform="translate(797,382)"/>
<path d="M0 0 C29.37 0 58.74 0 89 0 C88.67 2.31 88.34 4.62 88 7 C87.67 7 87.34 7 87 7 C87 5.35 87 3.7 87 2 C43.935 2.495 43.935 2.495 0 3 C0 2.01 0 1.02 0 0 Z " fill="#FE7A12" transform="translate(916,382)"/>
<path d="M0 0 C4.62 0 9.24 0 14 0 C14 0.33 14 0.66 14 1 C16.97 1.33 19.94 1.66 23 2 C23 2.33 23 2.66 23 3 C9.88409422 4.65054095 -4.13378709 5.37474437 -17 2 C-17 1.67 -17 1.34 -17 1 C-14.72923158 0.97300275 -12.45837179 0.95360547 -10.1875 0.9375 C-8.92292969 0.92589844 -7.65835937 0.91429687 -6.35546875 0.90234375 C-3 1 -3 1 0 2 C0 1.34 0 0.68 0 0 Z " fill="#494949" transform="translate(288,489)"/>
<path d="M0 0 C10.89 0 21.78 0 33 0 C31.515 6.93 31.515 6.93 30 14 C29.67 14 29.34 14 29 14 C29.14168137 12.56208484 29.28851043 11.1246763 29.4375 9.6875 C29.51871094 8.88699219 29.59992188 8.08648437 29.68359375 7.26171875 C30 5 30 5 31 2 C21.1 2 11.2 2 1 2 C0.67 2.99 0.34 3.98 0 5 C0 3.35 0 1.7 0 0 Z " fill="#FD7B10" transform="translate(1024,382)"/>
<path d="M0 0 C1.08433426 3.29019879 0.88793816 5.37664393 0.00390625 8.703125 C-0.22490234 9.60160156 -0.45371094 10.50007813 -0.68945312 11.42578125 C-1.1840277 13.29302626 -1.67881573 15.16021476 -2.17382812 17.02734375 C-3.58384815 22.56473331 -4.15431771 27.29641748 -4 33 C-4.47752141 35.76280245 -5.227368 38.295788 -6 41 C-9.50250133 35.44110584 -7.29636017 29.06573098 -6 23 C-4.16142833 15.29174289 -2.09928558 7.64076756 0 0 Z " fill="#383839" transform="translate(390,377)"/>
<path d="M0 0 C2.31 0 4.62 0 7 0 C5.34662047 2.22846807 3.92230894 3.75153315 1.1875 4.48828125 C-5.49512111 5.31132466 -12.280175 5.09347515 -19 5 C-19 4.67 -19 4.34 -19 4 C-14.545 3.505 -14.545 3.505 -10 3 C-10.99 2.34 -11.98 1.68 -13 1 C-11.20841511 0.97303635 -9.41671527 0.95362083 -7.625 0.9375 C-6.62726563 0.92589844 -5.62953125 0.91429687 -4.6015625 0.90234375 C-2 1 -2 1 0 2 C0 1.34 0 0.68 0 0 Z " fill="#454546" transform="translate(338,436)"/>
<path d="M0 0 C0 0.99 0 1.98 0 3 C-4.41378377 7.2839666 -8.60738837 8.83778904 -14.6875 9.25 C-18 9 -18 9 -21 7 C-18.7875277 5.89376385 -17.32805462 5.8044918 -14.875 5.625 C-9.45185181 5.07304792 -3.96643596 3.96643596 0 0 Z " fill="#2B2A27" transform="translate(307,619)"/>
<path d="M0 0 C1.15242187 0.11085938 2.30484375 0.22171875 3.4921875 0.3359375 C4.36101562 0.43132812 5.22984375 0.52671875 6.125 0.625 C6.125 0.955 6.125 1.285 6.125 1.625 C1.175 1.955 -3.775 2.285 -8.875 2.625 C-9.205 8.895 -9.535 15.165 -9.875 21.625 C-10.205 21.625 -10.535 21.625 -10.875 21.625 C-11.205 16.675 -11.535 11.725 -11.875 6.625 C-12.535 7.285 -13.195 7.945 -13.875 8.625 C-13.545 6.315 -13.215 4.005 -12.875 1.625 C-8.28267665 -0.20355428 -4.90141732 -0.50014462 0 0 Z " fill="#555556" transform="translate(148.875,453.375)"/>
<path d="M0 0 C0.33 0 0.66 0 1 0 C2.52016163 8.41518047 3.27733386 16.4488728 3 25 C2.01 24.34 1.02 23.68 0 23 C-0.067523 21.14311741 -0.11321621 19.28225073 -0.03515625 17.42578125 C0.01803093 13.75586591 -0.45751695 10.15726089 -0.87890625 6.515625 C-0.9960366 4.08233636 -0.72816001 2.30853691 0 0 Z " fill="#3A3B3B" transform="translate(617,407)"/>
<path d="M0 0 C2 2 2 2 2.07519531 3.9519043 C1.99366211 4.73476807 1.91212891 5.51763184 1.828125 6.32421875 C1.74046875 7.18853516 1.6528125 8.05285156 1.5625 8.94335938 C1.459375 9.84892578 1.35625 10.75449219 1.25 11.6875 C1.16234375 12.57373047 1.0746875 13.45996094 0.984375 14.37304688 C0.44247251 19.45714591 -0.42897974 24.13383132 -2 29 C-2.33 29 -2.66 29 -3 29 C-1.69601338 6.38831705 -1.69601338 6.38831705 0 0 Z " fill="#39393A" transform="translate(656,468)"/>
<path d="M0 0 C0.33 0 0.66 0 1 0 C1.21824777 6.0018137 0.5056904 11.19233704 -1 17 C-1.33 16.01 -1.66 15.02 -2 14 C-2.66 14 -3.32 14 -4 14 C-3.71831703 12.04020573 -3.42433283 10.08217622 -3.125 8.125 C-2.96257813 7.03445313 -2.80015625 5.94390625 -2.6328125 4.8203125 C-2 2 -2 2 0 0 Z " fill="#393939" transform="translate(685,474)"/>
<path d="M0 0 C-3.12488567 2.52394612 -6.31314387 4.39701907 -10 6 C-12 5 -12 5 -13 3 C-8.1942374 -0.17180332 -5.81427302 -1.70173845 0 0 Z M-14 6 C-13.34 6.33 -12.68 6.66 -12 7 C-12.99 7 -13.98 7 -15 7 C-14.67 6.67 -14.34 6.34 -14 6 Z " fill="#323333" transform="translate(178,392)"/>
<path d="M0 0 C0.33 0 0.66 0 1 0 C0.979375 0.9075 0.95875 1.815 0.9375 2.75 C0.84019991 5.82363516 0.84019991 5.82363516 1.625 7.9375 C2.21918026 11.20549141 1.01305998 13.9012283 0 17 C-0.66 17 -1.32 17 -2 17 C-3.18594057 12.76674194 -2.71869389 9.89604576 -1.5625 5.6875 C-1.27503906 4.61886719 -0.98757813 3.55023438 -0.69140625 2.44921875 C-0.46324219 1.64097656 -0.23507812 0.83273437 0 0 Z " fill="#3B3C3C" transform="translate(401,331)"/>
<path d="M0 0 C0.33 0.66 0.66 1.32 1 2 C0.01 2.99 -0.98 3.98 -2 5 C-1.34 5.33 -0.68 5.66 0 6 C-0.33 9.63 -0.66 13.26 -1 17 C-3.16066331 13.75900504 -3.37886905 12.23720241 -3.6875 8.4375 C-3.77386719 7.46683594 -3.86023438 6.49617187 -3.94921875 5.49609375 C-4 3 -4 3 -3 1 C-2.01 0.67 -1.02 0.34 0 0 Z " fill="#3F3C38" transform="translate(277,597)"/>
<path d="M0 0 C0 0.33 0 0.66 0 1 C-1.65 1 -3.3 1 -5 1 C-5 1.66 -5 2.32 -5 3 C-6.3303125 3.0928125 -6.3303125 3.0928125 -7.6875 3.1875 C-11.74081992 4.18171055 -13.29831749 5.90101124 -16 9 C-16.66 8.67 -17.32 8.34 -18 8 C-13.0419995 0.9443839 -8.23066458 -0.42572403 0 0 Z " fill="#2F2D2A" transform="translate(293,589)"/>
<path d="M0 0 C0.86367187 -0.03738281 1.72734375 -0.07476563 2.6171875 -0.11328125 C5.87389672 0.43964913 7.02886693 1.84101287 9.125 4.3125 C8.31675781 4.30089844 7.50851563 4.28929687 6.67578125 4.27734375 C5.07283203 4.26380859 5.07283203 4.26380859 3.4375 4.25 C2.38175781 4.23839844 1.32601562 4.22679687 0.23828125 4.21484375 C-2.59910262 4.30384575 -5.1188919 4.66310162 -7.875 5.3125 C-7.5 3.375 -7.5 3.375 -6.875 1.3125 C-4.44538821 0.0976941 -2.71115884 0.07642733 0 0 Z " fill="#584E42" transform="translate(175.875,587.6875)"/>
<path d="M0 0 C0.99 0 1.98 0 3 0 C-0.07517084 11.52164009 -0.07517084 11.52164009 -2 17 C-3.1727212 13.51487081 -2.82907069 10.95322227 -2.125 7.375 C-1.94195312 6.41335938 -1.75890625 5.45171875 -1.5703125 4.4609375 C-1 2 -1 2 0 0 Z " fill="#202020" transform="translate(258,516)"/>
<path d="M0 0 C1.21237671 3.63713013 0.63552691 5.09726971 -0.375 8.75 C-1.55270175 13.18117005 -2.48278054 17.44846879 -3 22 C-3.33 22 -3.66 22 -4 22 C-4.57184845 13.78762084 -3.26682231 7.53994257 0 0 Z " fill="#1E1F1F" transform="translate(131,437)"/>
<path d="M0 0 C0.33 0 0.66 0 1 0 C1.20190089 6.35987804 0.6277833 11.85221129 -1 18 C-3.54137736 14.18793396 -2.95345334 12.86026286 -2.1875 8.4375 C-1.99542969 7.28121094 -1.80335938 6.12492187 -1.60546875 4.93359375 C-1 2 -1 2 0 0 Z " fill="#FD9436" transform="translate(1002,390)"/>
<path d="M0 0 C2.19968593 3.47189235 2.05001544 5.58945034 1.25 9.5625 C0.97929688 10.98755859 0.97929688 10.98755859 0.703125 12.44140625 C0 15 0 15 -2 18 C-2.20190089 11.64012196 -1.6277833 6.14778871 0 0 Z " fill="#FD973A" transform="translate(1004,469)"/>
<path d="M0 0 C2.31332486 3.46998729 2.33957563 4.92509248 2 9 C1.01 10.485 1.01 10.485 0 12 C-0.66 12 -1.32 12 -2 12 C-2.33 12.99 -2.66 13.98 -3 15 C-2.35812082 9.86496656 -1.31727753 5.0056546 0 0 Z " fill="#424342" transform="translate(373,321)"/>
<path d="M0 0 C0.99 0.33 1.98 0.66 3 1 C2.67 2.65 2.34 4.3 2 6 C1.34 6 0.68 6 0 6 C0.20625 6.598125 0.4125 7.19625 0.625 7.8125 C1 10 1 10 -1 13 C-2.0070238 7.96488101 -1.97387813 4.76052962 0 0 Z " fill="#393A39" transform="translate(256,496)"/>
<path d="M0 0 C0.33 0 0.66 0 1 0 C1.05386629 2.12472576 1.09273071 4.24983652 1.125 6.375 C1.14820313 7.55835938 1.17140625 8.74171875 1.1953125 9.9609375 C1 13 1 13 -1 15 C-1.33 14.67 -1.66 14.34 -2 14 C-1.9355733 12.39226094 -1.79831686 10.78716777 -1.625 9.1875 C-1.48964844 7.87845703 -1.48964844 7.87845703 -1.3515625 6.54296875 C-1.04111511 4.29739927 -0.60050355 2.18318663 0 0 Z " fill="#FD8011" transform="translate(1015,423)"/>
<path d="M0 0 C1.09054688 0.02320313 2.18109375 0.04640625 3.3046875 0.0703125 C4.40039062 0.08835937 5.49609375 0.10640625 6.625 0.125 C7.46804687 0.14820313 8.31109375 0.17140625 9.1796875 0.1953125 C9.1796875 1.1853125 9.1796875 2.1753125 9.1796875 3.1953125 C-0.23033528 3.37982275 -0.23033528 3.37982275 -4.8203125 2.1953125 C-2.8203125 0.1953125 -2.8203125 0.1953125 0 0 Z " fill="#3C3C3C" transform="translate(174.8203125,494.8046875)"/>
<path d="M0 0 C4.62 0 9.24 0 14 0 C13.01 0.495 13.01 0.495 12 1 C12 1.66 12 2.32 12 3 C10.37419034 2.88601335 8.74932843 2.75844341 7.125 2.625 C6.22007812 2.55539062 5.31515625 2.48578125 4.3828125 2.4140625 C2 2 2 2 0 0 Z " fill="#1E1F1E" transform="translate(334,372)"/>
<path d="M0 0 C2.8290723 2.8290723 3.37611108 3.38144425 4 7 C3.34 7 2.68 7 2 7 C2.04125 8.11375 2.0825 9.2275 2.125 10.375 C2 14 2 14 0 16 C0 10.72 0 5.44 0 0 Z " fill="#3F3F39" transform="translate(308,600)"/>
<path d="M0 0 C1.53166168 4.08443115 0.63081652 7.79455657 0 12 C-0.99 12.33 -1.98 12.66 -3 13 C-2.52060632 8.28596212 -2.03165952 4.33420699 0 0 Z " fill="#232323" transform="translate(214,405)"/>
<path d="M0 0 C0.33 0.66 0.66 1.32 1 2 C-0.24282012 4.45038293 -1.52882339 6.773325 -2.9375 9.125 C-3.32357422 9.78371094 -3.70964844 10.44242187 -4.10742188 11.12109375 C-5.06446578 12.751613 -6.03132815 14.37636184 -7 16 C-7.33 15.34 -7.66 14.68 -8 14 C-7.03523618 11.98276656 -6.03161608 9.98387708 -5 8 C-4.7834375 6.948125 -4.7834375 6.948125 -4.5625 5.875 C-3.75729687 3.19098955 -2.04300734 1.84529695 0 0 Z " fill="#343535" transform="translate(570,398)"/>
<path d="M0 0 C1.89575251 -0.02721176 3.79161979 -0.04649136 5.6875 -0.0625 C6.74324219 -0.07410156 7.79898438 -0.08570313 8.88671875 -0.09765625 C11.72410262 -0.00865425 14.2438919 0.35060162 17 1 C17 1.66 17 2.32 17 3 C14.36 3 11.72 3 9 3 C9 2.67 9 2.34 9 2 C6.03 1.67 3.06 1.34 0 1 C0 0.67 0 0.34 0 0 Z " fill="#3E3F40" transform="translate(238,379)"/>
<path d="M0 0 C0.99 0.33 1.98 0.66 3 1 C2.25 6.75 2.25 6.75 0 9 C-0.66 9 -1.32 9 -2 9 C-1.34 6.03 -0.68 3.06 0 0 Z " fill="#343535" transform="translate(200,475)"/>
<path d="M0 0 C0.33 0.66 0.66 1.32 1 2 C-1.64116988 5.61938095 -3.97413046 7.98706523 -8 10 C-8.66 10 -9.32 10 -10 10 C-10 9.34 -10 8.68 -10 8 C-8.01399663 6.6459068 -6.01182457 5.31542376 -4 4 C-2.63113049 2.70317626 -1.2830709 1.38176866 0 0 Z " fill="#232323" transform="translate(739,438)"/>
<path d="M0 0 C1.53166168 4.08443115 0.63081652 7.79455657 0 12 C-0.99 12 -1.98 12 -3 12 C-2.88541307 10.56163249 -2.75790884 9.12429034 -2.625 7.6875 C-2.55539062 6.88699219 -2.48578125 6.08648437 -2.4140625 5.26171875 C-2 3 -2 3 0 0 Z " fill="#F99D40" transform="translate(773,497)"/>
<path d="M0 0 C0.66 0 1.32 0 2 0 C2 3.96 2 7.92 2 12 C1.01 12 0.02 12 -1 12 C-0.67 8.04 -0.34 4.08 0 0 Z " fill="#282828" transform="translate(437,395)"/>
<path d="M0 0 C2 3 2 3 1.7578125 5.26171875 C1.54898438 6.06222656 1.34015625 6.86273438 1.125 7.6875 C0.92132812 8.49574219 0.71765625 9.30398438 0.5078125 10.13671875 C0.25644531 11.05904297 0.25644531 11.05904297 0 12 C-0.66 12 -1.32 12 -2 12 C-1 3.42857143 -1 3.42857143 0 0 Z " fill="#FD9233" transform="translate(907,420)"/>
<path d="M0 0 C0.99 0.33 1.98 0.66 3 1 C0.48501596 3.69462575 -1.6723237 5.44708439 -5 7 C-5.66 7.66 -6.32 8.32 -7 9 C-6.75881648 5.74402242 -5.47775788 4.2723696 -3.125 2.1875 C-2.09375 1.465625 -1.0625 0.74375 0 0 Z " fill="#262524" transform="translate(168,590)"/>
<path d="M0 0 C0.33 0 0.66 0 1 0 C1.21192221 5.19209404 0.5912689 9.126739 -1 14 C-1.33 14 -1.66 14 -2 14 C-2.1799928 8.78020872 -1.97094808 4.92737019 0 0 Z " fill="#1E1F1F" transform="translate(429,435)"/>
<path d="M0 0 C0.70640625 0.09990234 1.4128125 0.19980469 2.140625 0.30273438 C3.88621607 0.55041959 5.63072084 0.80573871 7.375 1.0625 C7.375 1.3925 7.375 1.7225 7.375 2.0625 C4.91637599 2.11633848 2.4589245 2.15609038 0 2.1875 C-1.04800781 2.21263672 -1.04800781 2.21263672 -2.1171875 2.23828125 C-3.95397486 2.25594267 -5.79101963 2.16553261 -7.625 2.0625 C-8.285 1.4025 -8.945 0.7425 -9.625 0.0625 C-6.48694878 -1.50652561 -3.35881412 -0.49886446 0 0 Z " fill="#48453F" transform="translate(174.625,623.9375)"/>
<path d="M0 0 C0.66 0 1.32 0 2 0 C2.80967438 2.91482778 3.21845993 4.46113217 2.0625 7.3125 C1.5365625 8.1478125 1.5365625 8.1478125 1 9 C0.34 8.34 -0.32 7.68 -1 7 C-0.625 3.375 -0.625 3.375 0 0 Z " fill="#333434" transform="translate(323,524)"/>
<path d="M0 0 C0.66 0 1.32 0 2 0 C2 2.31 2 4.62 2 7 C1.34 7 0.68 7 0 7 C-0.33 7.66 -0.66 8.32 -1 9 C-0.67 6.03 -0.34 3.06 0 0 Z " fill="#343535" transform="translate(614,393)"/>
<path d="M0 0 C-1.28913487 0.67154933 -2.58140204 1.33708859 -3.875 2 C-4.59429687 2.37125 -5.31359375 2.7425 -6.0546875 3.125 C-8 4 -8 4 -10 4 C-10 3.34 -10 2.68 -10 2 C-3.375 -1.125 -3.375 -1.125 0 0 Z " fill="#262627" transform="translate(412,277)"/>
<path d="M0 0 C2.78637633 4.1795645 1.79562512 6.14668677 1 11 C0.67 11 0.34 11 0 11 C-0.19406478 9.35492782 -0.38007935 7.70890406 -0.5625 6.0625 C-0.66691406 5.14597656 -0.77132813 4.22945313 -0.87890625 3.28515625 C-0.91886719 2.53105469 -0.95882813 1.77695312 -1 1 C-0.67 0.67 -0.34 0.34 0 0 Z " fill="#3C3D3C" transform="translate(365,480)"/>
<path d="M0 0 C1.10844919 3.32534757 0.84454356 5.62182575 0 9 C-1.32 9 -2.64 9 -4 9 C-4 8.34 -4 7.68 -4 7 C-3.34 6.67 -2.68 6.34 -2 6 C-1.27306096 4.02111039 -0.60183749 2.02045442 0 0 Z " fill="#181819" transform="translate(349,422)"/>
<path d="M0 0 C1.32 0.33 2.64 0.66 4 1 C2.35 3.64 0.7 6.28 -1 9 C-2.60031344 5.79937313 -1.03173691 3.27728194 0 0 Z " fill="#343635" transform="translate(139,420)"/>
<path d="M0 0 C0.4125 0.474375 0.825 0.94875 1.25 1.4375 C3.182185 3.16266518 4.48192275 3.56584875 7 4 C7 4.99 7 5.98 7 7 C4.625 6.3125 4.625 6.3125 2 5 C0.6875 2.375 0.6875 2.375 0 0 Z " fill="#2F2F2E" transform="translate(276,618)"/>
<path d="M0 0 C0.66 0 1.32 0 2 0 C2.1875 2.875 2.1875 2.875 2 6 C1.01 6.66 0.02 7.32 -1 8 C-0.67 5.36 -0.34 2.72 0 0 Z " fill="#FD973A" transform="translate(889,501)"/>
<path d="M0 0 C0.66 0 1.32 0 2 0 C1.67 2.64 1.34 5.28 1 8 C0.34 8 -0.32 8 -1 8 C-0.67 5.36 -0.34 2.72 0 0 Z " fill="#FD963C" transform="translate(904,433)"/>
<path d="M0 0 C2.97 0.33 5.94 0.66 9 1 C9 1.66 9 2.32 9 3 C6.1875 3.1875 6.1875 3.1875 3 3 C2.01 2.01 1.02 1.02 0 0 Z " fill="#393939" transform="translate(248,436)"/>
<path d="M0 0 C-1.8125 1.5625 -1.8125 1.5625 -4 3 C-4.99 2.67 -5.98 2.34 -7 2 C-7.33 1.34 -7.66 0.68 -8 0 C-5.13822943 -1.43088528 -3.06624227 -0.59991697 0 0 Z " fill="#404141" transform="translate(178,392)"/>
</svg>
